<svg width="640" height="560" viewBox="0 0 640 560" fill="none" xmlns="http://www.w3.org/2000/svg">
  <defs>
    <linearGradient id="bg" x1="68" y1="24" x2="596" y2="528" gradientUnits="userSpaceOnUse">
      <stop stop-color="#F8FCFF"/>
      <stop offset="0.5" stop-color="#E9F5FF"/>
      <stop offset="1" stop-color="#F8FBFF"/>
    </linearGradient>
    <linearGradient id="panel" x1="132" y1="108" x2="500" y2="456" gradientUnits="userSpaceOnUse">
      <stop stop-color="white"/>
      <stop offset="1" stop-color="#F4FAFF"/>
    </linearGradient>
    <linearGradient id="accent" x1="298" y1="188" x2="470" y2="352" gradientUnits="userSpaceOnUse">
      <stop stop-color="#BFE8FF"/>
      <stop offset="1" stop-color="#8ED8FF"/>
    </linearGradient>
    <filter id="shadow" x="96" y="82" width="448" height="394" filterUnits="userSpaceOnUse" color-interpolation-filters="sRGB">
      <feFlood flood-opacity="0" result="BackgroundImageFix"/>
      <feColorMatrix in="SourceAlpha" type="matrix" values="0 0 0 0 0 0 0 0 0 0 0 0 0 0 0 0 0 0 127 0" result="hardAlpha"/>
      <feOffset dy="10"/>
      <feGaussianBlur stdDeviation="12"/>
      <feColorMatrix type="matrix" values="0 0 0 0 0.262745 0 0 0 0 0.52549 0 0 0 0 0.721569 0 0 0 0.15 0"/>
      <feBlend mode="normal" in2="BackgroundImageFix" result="effect1_dropShadow_201_2"/>
      <feBlend mode="normal" in="SourceGraphic" in2="effect1_dropShadow_201_2" result="shape"/>
    </filter>
  </defs>

  <rect x="20" y="20" width="600" height="520" rx="44" fill="url(#bg)"/>
  <ellipse cx="174" cy="98" rx="92" ry="34" fill="white" fill-opacity="0.82"/>
  <ellipse cx="470" cy="128" rx="118" ry="38" fill="white" fill-opacity="0.72"/>
  <ellipse cx="530" cy="446" rx="96" ry="30" fill="white" fill-opacity="0.68"/>

  <g filter="url(#shadow)">
    <rect x="120" y="96" width="400" height="346" rx="32" fill="url(#panel)"/>
    <rect x="146" y="122" width="148" height="292" rx="24" fill="#F5FAFF"/>
    <rect x="312" y="122" width="182" height="292" rx="24" fill="white"/>
    <rect x="146" y="122" width="148" height="56" rx="24" fill="#E6F4FF"/>
    <circle cx="176" cy="150" r="8" fill="#7DD3FC"/>
    <rect x="196" y="144" width="74" height="12" rx="6" fill="white"/>
    <rect x="168" y="202" width="104" height="88" rx="24" fill="white"/>
    <circle cx="220" cy="226" r="18" fill="#BFE6FF"/>
    <path d="M188 276C188 256.118 204.118 240 224 240C243.882 240 260 256.118 260 276V290H188V276Z" fill="#D5EEFF"/>
    <rect x="168" y="314" width="104" height="10" rx="5" fill="#D8EFFF"/>
    <rect x="168" y="334" width="88" height="10" rx="5" fill="#E7F5FF"/>
    <rect x="168" y="354" width="64" height="10" rx="5" fill="#E7F5FF"/>

    <rect x="330" y="146" width="146" height="150" rx="28" fill="url(#accent)"/>
    <circle cx="404" cy="198" r="28" fill="#F2FBFF"/>
    <path d="M358 274C358 241.415 384.415 215 417 215C449.585 215 476 241.415 476 274V296H358V274Z" fill="#EAF8FF"/>
    <rect x="330" y="322" width="146" height="18" rx="9" fill="#D6F1FF"/>
    <rect x="330" y="352" width="126" height="18" rx="9" fill="#E5F7FF"/>
    <rect x="330" y="382" width="92" height="18" rx="9" fill="#EAF8FF"/>

    <rect x="330" y="110" width="112" height="22" rx="11" fill="#EDF7FF"/>
    <circle cx="354" cy="121" r="6" fill="#60A5FA"/>
    <rect x="366" y="116" width="52" height="10" rx="5" fill="white"/>
  </g>

  <g>
    <rect x="74" y="354" width="118" height="78" rx="22" fill="white" fill-opacity="0.9"/>
    <rect x="96" y="376" width="74" height="10" rx="5" fill="#D8F1FF"/>
    <rect x="96" y="396" width="58" height="10" rx="5" fill="#E9F7FF"/>
    <rect x="96" y="416" width="42" height="10" rx="5" fill="#E9F7FF"/>
  </g>

  <g>
    <circle cx="536" cy="220" r="42" fill="white" fill-opacity="0.86"/>
    <circle cx="536" cy="208" r="14" fill="#CDEBFF"/>
    <path d="M504 248C504 230.327 518.327 216 536 216C553.673 216 568 230.327 568 248V262H504V248Z" fill="#DFF3FF"/>
  </g>
</svg>
