<svg width="240" height="240" viewBox="0 0 240 240" fill="none" xmlns="http://www.w3.org/2000/svg">
  <rect width="240" height="240" rx="120" fill="#DCFCE7"/>
  <circle cx="120" cy="120" r="120" fill="url(#paint0_linear_501_12)"/>
  <ellipse cx="120" cy="210" rx="76" ry="52" fill="#44615A"/>
  <path d="M72 104C72 67.5492 101.549 38 138 38C174.451 38 204 67.5492 204 104V134H72V104Z" fill="#1F2937"/>
  <ellipse cx="122" cy="122" rx="43" ry="51" fill="#D9A984"/>
  <path d="M87 95C87 72.9086 104.909 55 127 55H138C160.091 55 178 72.9086 178 95V112H87V95Z" fill="#111827"/>
  <circle cx="106" cy="120" r="4" fill="#1F2937"/>
  <circle cx="140" cy="120" r="4" fill="#1F2937"/>
  <path d="M111 141C116.5 145 129 145 134 141" stroke="#9C6644" stroke-width="4" stroke-linecap="round"/>
  <path d="M58 201C58 169.52 83.5198 144 115 144H129C160.48 144 186 169.52 186 201V240H58V201Z" fill="#F4F7F7"/>
  <path d="M72 240C72 202.444 102.444 172 140 172H186V240H72Z" fill="#D2EEE5"/>
  <defs>
    <linearGradient id="paint0_linear_501_12" x1="33" y1="30" x2="204" y2="214" gradientUnits="userSpaceOnUse">
      <stop stop-color="#F7FFFB"/>
      <stop offset="1" stop-color="#B9F6CF"/>
    </linearGradient>
  </defs>
</svg>
