<svg width="240" height="240" viewBox="0 0 240 240" fill="none" xmlns="http://www.w3.org/2000/svg">
  <rect width="240" height="240" rx="120" fill="#FEF3C7"/>
  <circle cx="120" cy="120" r="120" fill="url(#paint0_linear_501_13)"/>
  <ellipse cx="120" cy="208" rx="78" ry="54" fill="#6E574B"/>
  <path d="M60 111C60 71.2355 92.2355 39 132 39C171.765 39 204 71.2355 204 111V136H60V111Z" fill="#5B4338"/>
  <ellipse cx="120" cy="123" rx="43" ry="51" fill="#F2C6A5"/>
  <path d="M78 102C78 74.3858 100.386 52 128 52H139C166.614 52 189 74.3858 189 102V111H78V102Z" fill="#704F43"/>
  <circle cx="103" cy="121" r="4" fill="#5B4338"/>
  <circle cx="138" cy="121" r="4" fill="#5B4338"/>
  <path d="M108 139C113.5 144.5 126.5 144.5 132 139" stroke="#B7795F" stroke-width="4" stroke-linecap="round"/>
  <path d="M55 202C55 170.52 80.5198 145 112 145H128C159.48 145 185 170.52 185 202V240H55V202Z" fill="#FFF9F0"/>
  <path d="M95 172H185V240H78C78 202.444 108.444 172 146 172H95Z" fill="#FFE6AE"/>
  <defs>
    <linearGradient id="paint0_linear_501_13" x1="34" y1="26" x2="200" y2="214" gradientUnits="userSpaceOnUse">
      <stop stop-color="#FFFCF2"/>
      <stop offset="1" stop-color="#FFE4A3"/>
    </linearGradient>
  </defs>
</svg>
